<svg xmlns="http://www.w3.org/2000/svg" viewBox="0 0 1024 1024" role="img" aria-label="OddsEye logo">
  <defs>
    <radialGradient id="bgGlow" cx="28%" cy="18%" r="78%">
      <stop offset="0%" stop-color="#153d38"/>
      <stop offset="46%" stop-color="#071017"/>
      <stop offset="100%" stop-color="#040609"/>
    </radialGradient>
    <linearGradient id="ring" x1="208" y1="178" x2="836" y2="846" gradientUnits="userSpaceOnUse">
      <stop stop-color="#4FE3BF"/>
      <stop offset="54%" stop-color="#75ADFF"/>
      <stop offset="100%" stop-color="#D9B866"/>
    </linearGradient>
    <linearGradient id="curve" x1="267" y1="590" x2="757" y2="386" gradientUnits="userSpaceOnUse">
      <stop stop-color="#D9B866"/>
      <stop offset="48%" stop-color="#4FE3BF"/>
      <stop offset="100%" stop-color="#75ADFF"/>
    </linearGradient>
    <filter id="softShadow" x="-20%" y="-20%" width="140%" height="140%">
      <feDropShadow dx="0" dy="42" stdDeviation="44" flood-color="#000000" flood-opacity="0.44"/>
    </filter>
  </defs>
  <rect width="1024" height="1024" rx="232" fill="url(#bgGlow)"/>
  <path d="M176 512c76-139 193-208 336-208s260 69 336 208c-76 139-193 208-336 208S252 651 176 512Z" fill="#0B151E" stroke="url(#ring)" stroke-width="44" filter="url(#softShadow)"/>
  <circle cx="512" cy="512" r="118" fill="#071017" stroke="#F6FAF8" stroke-opacity="0.9" stroke-width="34"/>
  <circle cx="512" cy="512" r="54" fill="#4FE3BF"/>
  <path d="M274 596c80 0 90-126 176-126 73 0 82 84 150 84 55 0 83-54 150-90" fill="none" stroke="url(#curve)" stroke-width="46" stroke-linecap="round" stroke-linejoin="round"/>
  <path d="M512 204v92M512 728v92M204 512h92M728 512h92" stroke="#D9B866" stroke-width="34" stroke-linecap="round"/>
</svg>
